<svg version="1.1" xmlns="http://www.w3.org/2000/svg" viewBox="0 0 1421.5578422737942 1144.4001007080078" width="1421.5578422737942" height="1144.4001007080078" filter="invert(93%) hue-rotate(180deg)">
  <!-- svg-source:excalidraw -->
  
  <defs>
    <style class="style-fonts">
      @font-face {
        font-family: "Virgil";
        src: url("https://excalidraw.com/Virgil.woff2");
      }
      @font-face {
        font-family: "Cascadia";
        src: url("https://excalidraw.com/Cascadia.woff2");
      }
      @font-face {
        font-family: "Assistant";
        src: url("https://excalidraw.com/Assistant-Regular.woff2");
      }
    </style>
    
  </defs>
  <rect x="0" y="0" width="1421.5578422737942" height="1144.4001007080078" fill="#ffffff"></rect><g stroke-linecap="round" transform="translate(191.1143755231583 353.59999084472656) rotate(0 428.3999786376953 390.4000549316406)"><path d="M32 0 C308.32 -2.56, 585.45 -2.63, 824.8 0 M32 0 C292.56 -1.91, 553.5 -1.9, 824.8 0 M824.8 0 C847.77 -0.99, 858.14 9.62, 856.8 32 M824.8 0 C844.57 -1.78, 856.01 9.6, 856.8 32 M856.8 32 C855.02 234.14, 855.02 436.64, 856.8 748.8 M856.8 32 C854.27 315.46, 854.42 598.84, 856.8 748.8 M856.8 748.8 C857.97 768.19, 847.54 781.77, 824.8 780.8 M856.8 748.8 C855.94 769.64, 847.56 780.55, 824.8 780.8 M824.8 780.8 C596.64 782.01, 369.32 782.15, 32 780.8 M824.8 780.8 C540.81 779.31, 256.32 779.43, 32 780.8 M32 780.8 C9.88 780.77, 1.02 769.78, 0 748.8 M32 780.8 C11.95 782.56, 1.41 770.61, 0 748.8 M0 748.8 C-1.74 595.45, -2.21 441.26, 0 32 M0 748.8 C2.44 563.47, 1.8 378.4, 0 32 M0 32 C-1.64 9.81, 8.9 0.28, 32 0 M0 32 C-1.65 11.44, 11.5 -1.66, 32 0" stroke="#1e1e1e" stroke-width="2" fill="none"></path></g><g stroke-linecap="round" transform="translate(223.91424124581454 488.00010681152344) rotate(0 101.19999694824219 39.20001220703125)"><path d="M5.22 4.54 C5.22 4.54, 5.22 4.54, 5.22 4.54 M5.22 4.54 C5.22 4.54, 5.22 4.54, 5.22 4.54 M4.04 18.09 C8.5 13.76, 8.88 10.52, 19.78 -0.03 M4.04 18.09 C8.79 13.46, 13.17 6.44, 19.78 -0.03 M4.17 30.13 C10.11 25.81, 15.95 15.65, 30.41 -0.06 M4.17 30.13 C13.69 19.31, 21.36 10.26, 30.41 -0.06 M3.65 42.92 C20.35 25.38, 34.7 11.49, 41.04 -0.1 M3.65 42.92 C16.82 25.33, 32.25 9.49, 41.04 -0.1 M3.78 54.96 C15.25 40.99, 31.05 23.17, 51.67 -0.13 M3.78 54.96 C19.09 37.02, 35.22 17.68, 51.67 -0.13 M3.91 67 C22.22 46.37, 37.68 30.13, 62.3 -0.17 M3.91 67 C21.9 44.66, 40.85 24.45, 62.3 -0.17 M7.33 75.27 C26.31 55.42, 45.67 34.95, 72.93 -0.2 M7.33 75.27 C31.23 46.73, 55.66 20.19, 72.93 -0.2 M14.02 79.76 C35.06 58.65, 53.88 35.94, 83.56 -0.23 M14.02 79.76 C28.69 63.5, 41.59 47.97, 83.56 -0.23 M23.34 81.24 C41.26 61.19, 55.57 42.07, 94.19 -0.27 M23.34 81.24 C42.33 60.81, 59.85 37.42, 94.19 -0.27 M33.97 81.21 C54.41 60.35, 72.48 38.23, 104.17 0.45 M33.97 81.21 C58.19 52.66, 82.71 23.7, 104.17 0.45 M44.6 81.17 C66.95 54.16, 92.64 29.36, 114.8 0.42 M44.6 81.17 C63.23 61.01, 80.86 39.98, 114.8 0.42 M55.23 81.14 C81.08 51.84, 106.53 23.97, 125.43 0.38 M55.23 81.14 C75.46 57.41, 97.96 32.75, 125.43 0.38 M65.86 81.1 C79.01 66.31, 95.8 49.33, 136.06 0.35 M65.86 81.1 C85.61 58.43, 107.16 34.15, 136.06 0.35 M75.83 81.82 C100.79 52.16, 127.7 24.55, 146.69 0.31 M75.83 81.82 C91.14 64.77, 106.26 47.74, 146.69 0.31 M86.46 81.79 C104.19 60.56, 123.16 41.71, 157.32 0.28 M86.46 81.79 C111.85 50.77, 138.87 21.88, 157.32 0.28 M97.09 81.75 C113.84 62.57, 132.43 41.44, 167.95 0.24 M97.09 81.75 C115.46 60.12, 135.27 38.86, 167.95 0.24 M107.72 81.72 C131.47 56.06, 153.21 34.12, 178.58 0.21 M107.72 81.72 C134.76 51.51, 162.19 20.23, 178.58 0.21 M118.35 81.68 C139.94 55.29, 166.8 29.56, 186.58 3.19 M118.35 81.68 C137.43 60.19, 155.62 38.97, 186.58 3.19 M128.98 81.65 C153.02 56.53, 174.38 26.58, 195.9 4.67 M128.98 81.65 C147.43 59.51, 166.19 38.79, 195.9 4.67 M139.61 81.61 C159.53 57.51, 180.76 34.05, 201.94 9.92 M139.61 81.61 C154.77 63.43, 170.95 44.4, 201.94 9.92 M150.24 81.58 C161.79 68.86, 176.09 51.35, 205.35 18.18 M150.24 81.58 C167.07 63, 182.02 45.25, 205.35 18.18 M160.87 81.55 C171.94 70.1, 181.34 56.33, 205.49 30.23 M160.87 81.55 C172.67 67.04, 186.1 54.2, 205.49 30.23 M171.51 81.51 C182.83 69.45, 193.63 55.52, 205.62 42.27 M171.51 81.51 C182.64 68.19, 193.55 56.25, 205.62 42.27 M184.1 79.21 C188.03 71.02, 193.16 66.89, 205.75 54.31 M184.1 79.21 C187.99 73.65, 192.21 69.25, 205.75 54.31" stroke="#ffc9c9" stroke-width="1" fill="none"></path><path d="M19.6 0 C58.64 0.57, 92.32 -1.5, 182.8 0 M19.6 0 C79.42 -0.18, 138.8 -0.29, 182.8 0 M182.8 0 C194.24 0.17, 203.48 6.15, 202.4 19.6 M182.8 0 C195.08 2.12, 200.21 7.69, 202.4 19.6 M202.4 19.6 C203.11 33.59, 201.37 45.67, 202.4 58.8 M202.4 19.6 C202.49 31.62, 202.51 41.58, 202.4 58.8 M202.4 58.8 C203.71 70.39, 195.43 79.17, 182.8 78.4 M202.4 58.8 C202.26 71.03, 194.62 80.65, 182.8 78.4 M182.8 78.4 C136.34 77.32, 91.23 80.6, 19.6 78.4 M182.8 78.4 C129.84 79.96, 76.37 79.85, 19.6 78.4 M19.6 78.4 C6.36 76.5, 1.98 71.2, 0 58.8 M19.6 78.4 C8.3 80.67, 1.56 69.74, 0 58.8 M0 58.8 C0.91 46.16, 0.11 33.71, 0 19.6 M0 58.8 C-0.76 46.04, 0.19 33.08, 0 19.6 M0 19.6 C0.43 7.73, 5.05 -1.91, 19.6 0 M0 19.6 C0.4 4.24, 5.97 2.01, 19.6 0" stroke="#e03131" stroke-width="2" fill="none"></path></g><g transform="translate(300.5048631940567 510.40011901855473) rotate(0 24.609375 16.80000000000001)"><text x="24.609375" y="27.0375" font-family="Cascadia, Segoe UI Emoji" font-size="28px" fill="#e03131" text-anchor="middle" style="white-space: pre;" direction="ltr" dominant-baseline="alphabetic">C++</text></g><g stroke-linecap="round" transform="translate(517.9142870221817 488.00010681152344) rotate(0 101.19999694824219 39.20001220703125)"><path d="M5.22 4.54 C5.22 4.54, 5.22 4.54, 5.22 4.54 M5.22 4.54 C5.22 4.54, 5.22 4.54, 5.22 4.54 M0.76 21.86 C5.94 12.15, 15.17 3.7, 19.78 -0.03 M0.76 21.86 C4.07 16.68, 8.56 13.37, 19.78 -0.03 M0.89 33.9 C10.78 21.64, 25.08 9.49, 30.41 -0.06 M0.89 33.9 C9.66 23.53, 17.7 14.32, 30.41 -0.06 M1.02 45.94 C14.42 32.77, 25.92 16.96, 41.04 -0.1 M1.02 45.94 C12.01 34.52, 21.3 22, 41.04 -0.1 M1.16 57.98 C11.95 45.82, 21.17 32.77, 51.67 -0.13 M1.16 57.98 C18.73 40.02, 34.29 19.49, 51.67 -0.13 M2.6 68.51 C25.27 39.71, 50.33 12.76, 62.3 -0.17 M2.6 68.51 C22.01 47.63, 40.88 25, 62.3 -0.17 M7.33 75.27 C31.51 47.23, 54.74 18.18, 72.93 -0.2 M7.33 75.27 C20.42 58.89, 33.75 44.68, 72.93 -0.2 M15.33 78.26 C31.6 58.71, 45.87 43.88, 83.56 -0.23 M15.33 78.26 C32.36 57.81, 49.98 37.77, 83.56 -0.23 M25.31 78.98 C39.22 61.9, 53.85 44.87, 94.19 -0.27 M25.31 78.98 C47.07 54.23, 66.31 31.05, 94.19 -0.27 M35.94 78.94 C54.03 57.23, 70.4 35.83, 104.17 0.45 M35.94 78.94 C60.32 52.72, 83.89 25.26, 104.17 0.45 M46.57 78.91 C66.29 59.42, 84.91 37.56, 114.8 0.42 M46.57 78.91 C62.51 61.1, 77.32 43.62, 114.8 0.42 M57.2 78.87 C75.38 56.23, 93.27 36.63, 125.43 0.38 M57.2 78.87 C83.01 48.9, 107.75 19.86, 125.43 0.38 M67.83 78.84 C89.76 53.78, 110.68 30.14, 136.06 0.35 M67.83 78.84 C92.02 52.79, 114.84 24.98, 136.06 0.35 M78.46 78.8 C95.25 61.38, 111.43 42.36, 146.69 0.31 M78.46 78.8 C101.25 52.69, 125.91 24.66, 146.69 0.31 M89.09 78.77 C112 51.22, 136.49 21.95, 157.32 0.28 M89.09 78.77 C109.05 54.56, 131.2 29.5, 157.32 0.28 M99.72 78.73 C120.34 53.94, 140.4 27.99, 167.95 0.24 M99.72 78.73 C122.24 53.28, 144.5 27.13, 167.95 0.24 M110.35 78.7 C136.02 48.14, 164.49 17.54, 178.58 0.21 M110.35 78.7 C130.67 56.09, 148.7 33.95, 178.58 0.21 M120.98 78.67 C138.63 62.86, 154.13 42.89, 188.55 0.93 M120.98 78.67 C136.01 61.06, 153.29 43.15, 188.55 0.93 M131.61 78.63 C146.51 57.18, 164.99 37.75, 195.9 4.67 M131.61 78.63 C151.48 56.12, 172.3 32.7, 195.9 4.67 M142.24 78.6 C155.9 61.38, 169.33 46.69, 200.63 11.43 M142.24 78.6 C157.66 60.5, 170.38 44.65, 200.63 11.43 M152.87 78.56 C166.81 62.63, 181.4 47.79, 202.73 21.2 M152.87 78.56 C170.43 58.3, 187.03 38.03, 202.73 21.2 M163.5 78.53 C171.76 68.45, 183.28 57.59, 202.86 33.24 M163.5 78.53 C178.35 62, 191.34 46.34, 202.86 33.24 M174.13 78.49 C179.95 71.09, 189.89 62.1, 203 45.29 M174.13 78.49 C180.83 71.6, 187.33 62.75, 203 45.29 M184.76 78.46 C191.4 71.98, 196.15 67.91, 203.13 57.33 M184.76 78.46 C188.81 72.55, 193.55 66.2, 203.13 57.33" stroke="#a5d8ff" stroke-width="1" fill="none"></path><path d="M19.6 0 C52.94 -0.15, 84.29 -1.3, 182.8 0 M19.6 0 C81.8 -0.67, 142.38 -1.69, 182.8 0 M182.8 0 C195.56 1.42, 202.92 7.55, 202.4 19.6 M182.8 0 C196.8 -0.62, 203.92 4.4, 202.4 19.6 M202.4 19.6 C202.24 31.56, 202.6 45.84, 202.4 58.8 M202.4 19.6 C202.58 30.93, 201.96 43.4, 202.4 58.8 M202.4 58.8 C203.8 70.63, 193.95 77.88, 182.8 78.4 M202.4 58.8 C203.61 73.37, 197.02 77.02, 182.8 78.4 M182.8 78.4 C118.2 80.68, 53.84 79.28, 19.6 78.4 M182.8 78.4 C139.19 77.97, 94.8 77.78, 19.6 78.4 M19.6 78.4 C6.39 76.89, -1.48 73.2, 0 58.8 M19.6 78.4 C5.82 77.85, 1.65 73.44, 0 58.8 M0 58.8 C-1.94 51.35, -0.61 40.23, 0 19.6 M0 58.8 C-0.65 44.26, 0.36 29.03, 0 19.6 M0 19.6 C-1.51 6.09, 7.42 -1.7, 19.6 0 M0 19.6 C-0.88 5.12, 8.03 1.87, 19.6 0" stroke="#1971c2" stroke-width="2" fill="none"></path></g><g transform="translate(569.8955339704239 510.40011901855473) rotate(0 49.21875 16.80000000000001)"><text x="49.21875" y="27.0375" font-family="Cascadia, Segoe UI Emoji" font-size="28px" fill="#1971c2" text-anchor="middle" style="white-space: pre;" direction="ltr" dominant-baseline="alphabetic">Triton</text></g><g stroke-linecap="round" transform="translate(809.114299229213 488.00010681152344) rotate(0 101.19999694824219 39.20001220703125)"><path d="M5.22 4.54 C5.22 4.54, 5.22 4.54, 5.22 4.54 M5.22 4.54 C5.22 4.54, 5.22 4.54, 5.22 4.54 M0.76 21.86 C7.8 12.47, 14.89 6.13, 19.78 -0.03 M0.76 21.86 C6.04 15.81, 12.28 7.29, 19.78 -0.03 M0.89 33.9 C8.21 26.11, 19.35 16.61, 30.41 -0.06 M0.89 33.9 C7.48 24.77, 15.85 17.67, 30.41 -0.06 M1.02 45.94 C18.02 26.37, 30.42 10.12, 41.04 -0.1 M1.02 45.94 C12.55 32.78, 23.99 20.85, 41.04 -0.1 M1.16 57.98 C13.47 45.61, 21.86 32.96, 51.67 -0.13 M1.16 57.98 C18.62 40.13, 33.13 19.62, 51.67 -0.13 M2.6 68.51 C18.42 49.17, 36.28 30.46, 62.3 -0.17 M2.6 68.51 C22.49 46.15, 41.56 22.84, 62.3 -0.17 M7.33 75.27 C21.5 58.68, 35.42 45.3, 72.93 -0.2 M7.33 75.27 C30.85 48.82, 53.94 20.53, 72.93 -0.2 M15.33 78.26 C39.57 48.05, 65.63 22.23, 83.56 -0.23 M15.33 78.26 C41.81 47.39, 69.7 16.52, 83.56 -0.23 M25.31 78.98 C45.89 57.94, 64.62 34.97, 94.19 -0.27 M25.31 78.98 C46.78 52.91, 68.62 27.76, 94.19 -0.27 M35.94 78.94 C51 62.94, 65.05 48.06, 104.17 0.45 M35.94 78.94 C49.89 60.87, 65.75 44.72, 104.17 0.45 M46.57 78.91 C65.41 55.58, 86.55 33.7, 114.8 0.42 M46.57 78.91 C68.35 54.48, 91.03 27.63, 114.8 0.42 M57.2 78.87 C77.02 55.83, 94.06 33.85, 125.43 0.38 M57.2 78.87 C76.5 57.25, 97.54 32.52, 125.43 0.38 M67.83 78.84 C92.26 50.34, 116.79 23.57, 136.06 0.35 M67.83 78.84 C94.1 47.81, 119.79 15.89, 136.06 0.35 M78.46 78.8 C92.32 58.85, 107.25 44.01, 146.69 0.31 M78.46 78.8 C102.46 53.82, 123.64 26.36, 146.69 0.31 M89.09 78.77 C113.9 48.61, 140.42 18.39, 157.32 0.28 M89.09 78.77 C109.71 55.88, 128.92 31.34, 157.32 0.28 M99.72 78.73 C120.71 56.68, 137.77 35.4, 167.95 0.24 M99.72 78.73 C125.34 48.89, 148.93 20.82, 167.95 0.24 M110.35 78.7 C125.06 59.96, 140.21 45.67, 178.58 0.21 M110.35 78.7 C129.5 56.43, 151.13 32.63, 178.58 0.21 M120.98 78.67 C138.62 54.98, 161.66 32.22, 188.55 0.93 M120.98 78.67 C137.49 60.27, 152.38 42.47, 188.55 0.93 M131.61 78.63 C149.52 58.42, 168.92 34.48, 195.9 4.67 M131.61 78.63 C146.89 62.27, 159.72 46.46, 195.9 4.67 M142.24 78.6 C158.17 57.32, 178.5 38.46, 200.63 11.43 M142.24 78.6 C161.62 58.46, 180.01 36.96, 200.63 11.43 M152.87 78.56 C168.93 58.23, 184.91 41.7, 202.73 21.2 M152.87 78.56 C170.54 58.83, 189.87 37.12, 202.73 21.2 M163.5 78.53 C176.03 63.82, 190.89 48.59, 202.86 33.24 M163.5 78.53 C172.24 68.95, 181.32 58.34, 202.86 33.24 M174.13 78.49 C181.47 67.71, 192.35 58.03, 203 45.29 M174.13 78.49 C185.69 64.97, 197.79 51.48, 203 45.29 M184.76 78.46 C189.46 72.07, 197.12 67.77, 203.13 57.33 M184.76 78.46 C190.54 73.12, 193.59 67.01, 203.13 57.33" stroke="#b2f2bb" stroke-width="1" fill="none"></path><path d="M19.6 0 C58.08 -2.51, 99.41 -2, 182.8 0 M19.6 0 C64.06 -0.7, 108.36 0.19, 182.8 0 M182.8 0 C194.78 0.34, 203.45 8.24, 202.4 19.6 M182.8 0 C197.38 0.8, 201.68 7.07, 202.4 19.6 M202.4 19.6 C204.55 33.95, 201.12 45.96, 202.4 58.8 M202.4 19.6 C203.33 29.71, 202.38 41.44, 202.4 58.8 M202.4 58.8 C202.54 71.98, 194.08 78.3, 182.8 78.4 M202.4 58.8 C201.75 73.64, 196.05 80.58, 182.8 78.4 M182.8 78.4 C133.04 77.47, 81.98 76.47, 19.6 78.4 M182.8 78.4 C128.3 78.7, 72.02 77.63, 19.6 78.4 M19.6 78.4 C6.9 80.39, -1.69 73.1, 0 58.8 M19.6 78.4 C5.27 77.85, -0.28 71.74, 0 58.8 M0 58.8 C1 44.51, -0.58 27.88, 0 19.6 M0 58.8 C0.13 44.14, 0.36 29.79, 0 19.6 M0 19.6 C0.21 6.17, 4.74 0.25, 19.6 0 M0 19.6 C1.16 7.6, 4.32 1.47, 19.6 0" stroke="#2f9e44" stroke-width="2" fill="none"></path></g><g transform="translate(877.5017961774552 510.40011901855473) rotate(0 32.8125 16.80000000000001)"><text x="32.8125" y="27.0375" font-family="Cascadia, Segoe UI Emoji" font-size="28px" fill="#2f9e44" text-anchor="middle" style="white-space: pre;" direction="ltr" dominant-baseline="alphabetic">CUDA</text></g><g stroke-linecap="round" transform="translate(195.79998343331454 10) rotate(0 426.1143319266183 134)"><path d="M32 0 C252.74 -1.14, 472.55 -1.41, 820.23 0 M32 0 C261.01 -1.02, 489.89 -1.39, 820.23 0 M820.23 0 C842.5 -0.81, 850.58 12.12, 852.23 32 M820.23 0 C839.84 1.31, 853.48 11.51, 852.23 32 M852.23 32 C853.35 82.91, 854.62 131.95, 852.23 236 M852.23 32 C851.2 91.99, 851.51 151.35, 852.23 236 M852.23 236 C852.3 258.98, 843.22 268.07, 820.23 268 M852.23 236 C849.93 255.32, 843 268.74, 820.23 268 M820.23 268 C649.59 271.08, 479.29 271.81, 32 268 M820.23 268 C543.77 270.87, 266.75 270.53, 32 268 M32 268 C11.62 266.94, 1.99 256.92, 0 236 M32 268 C12.42 265.76, 0.85 258.73, 0 236 M0 236 C0.13 183.79, -0.15 129.27, 0 32 M0 236 C-1.06 181.58, -0.06 127.71, 0 32 M0 32 C1.66 10.08, 10.06 -0.51, 32 0 M0 32 C-0.78 8.39, 8.55 -1.48, 32 0" stroke="#1e1e1e" stroke-width="2" fill="none"></path></g><g stroke-linecap="round" transform="translate(523.5143236432755 27.200042724609375) rotate(0 101.19999694824219 39.20001220703125)"><path d="M5.22 4.54 C5.22 4.54, 5.22 4.54, 5.22 4.54 M5.22 4.54 C5.22 4.54, 5.22 4.54, 5.22 4.54 M0.76 21.86 C4.51 19.19, 9.58 13.43, 19.78 -0.03 M0.76 21.86 C5.23 15.85, 9.82 10.88, 19.78 -0.03 M0.89 33.9 C9.78 24.11, 21.47 9.34, 30.41 -0.06 M0.89 33.9 C7.54 25.69, 14.68 18.02, 30.41 -0.06 M1.02 45.94 C13.97 35.42, 23 21.27, 41.04 -0.1 M1.02 45.94 C11.55 34.29, 22.09 21.74, 41.04 -0.1 M1.16 57.98 C14.81 41.33, 29.53 25.73, 51.67 -0.13 M1.16 57.98 C19.28 36.12, 37.01 15.72, 51.67 -0.13 M2.6 68.51 C20.95 46.75, 38.94 26.41, 62.3 -0.17 M2.6 68.51 C20.25 48.14, 35.62 29.74, 62.3 -0.17 M7.33 75.27 C24.59 56.39, 39.75 38.26, 72.93 -0.2 M7.33 75.27 C20.83 58.6, 35.97 40.3, 72.93 -0.2 M15.33 78.26 C32.4 58.57, 52.15 36.26, 83.56 -0.23 M15.33 78.26 C33.31 57.82, 50.98 37.03, 83.56 -0.23 M25.31 78.98 C44.07 53.37, 66.41 33.53, 94.19 -0.27 M25.31 78.98 C46.77 53.47, 68.31 30.09, 94.19 -0.27 M35.94 78.94 C57.59 54.44, 73.89 34.99, 104.17 0.45 M35.94 78.94 C60.54 47.97, 86.8 19.93, 104.17 0.45 M46.57 78.91 C70.35 51.81, 95.78 26.53, 114.8 0.42 M46.57 78.91 C72.49 49.94, 97.62 21.93, 114.8 0.42 M57.2 78.87 C74.21 55.9, 95.19 35.5, 125.43 0.38 M57.2 78.87 C81.05 51.93, 106.45 23.52, 125.43 0.38 M67.83 78.84 C90.24 53.97, 111.95 27.01, 136.06 0.35 M67.83 78.84 C91.22 54.01, 111.9 27.47, 136.06 0.35 M78.46 78.8 C93.65 61.65, 110.51 41.95, 146.69 0.31 M78.46 78.8 C97.74 57.16, 116.37 34.86, 146.69 0.31 M89.09 78.77 C109.01 55.78, 127.86 35.14, 157.32 0.28 M89.09 78.77 C114.47 48.35, 142.2 17.71, 157.32 0.28 M99.72 78.73 C119.43 58.08, 137.84 33.3, 167.95 0.24 M99.72 78.73 C116.74 58.02, 135.3 38.55, 167.95 0.24 M110.35 78.7 C124.75 60.48, 142.68 41.02, 178.58 0.21 M110.35 78.7 C133.5 52.83, 153.91 28.55, 178.58 0.21 M120.98 78.67 C147.69 49.27, 170.38 21.08, 188.55 0.93 M120.98 78.67 C142.39 55.52, 162.25 32.55, 188.55 0.93 M131.61 78.63 C154.02 53.79, 172.63 29.7, 195.9 4.67 M131.61 78.63 C155.4 49.37, 180.57 21.08, 195.9 4.67 M142.24 78.6 C155.87 63.13, 169.42 48.67, 200.63 11.43 M142.24 78.6 C158.85 61.29, 173.7 43.98, 200.63 11.43 M152.87 78.56 C166.87 60.67, 181.09 43.98, 202.73 21.2 M152.87 78.56 C170.85 55.85, 190.66 35.41, 202.73 21.2 M163.5 78.53 C170.77 67.07, 183.63 58.17, 202.86 33.24 M163.5 78.53 C176.56 62.93, 188.13 48.79, 202.86 33.24 M174.13 78.49 C183.58 67.24, 195.87 52.63, 203 45.29 M174.13 78.49 C179.41 72.02, 186.5 64.33, 203 45.29 M184.76 78.46 C191.16 71.26, 198.71 66.13, 203.13 57.33 M184.76 78.46 C189.19 72.64, 194.34 66.91, 203.13 57.33" stroke="#d0bfff" stroke-width="1" fill="none"></path><path d="M19.6 0 C73.25 -0.66, 124.67 -0.72, 182.8 0 M19.6 0 C71.04 -0.11, 121.88 0.11, 182.8 0 M182.8 0 C196.29 -0.4, 203.11 7.42, 202.4 19.6 M182.8 0 C198.11 -1.34, 201.52 8.13, 202.4 19.6 M202.4 19.6 C202.37 33.19, 203.53 42.8, 202.4 58.8 M202.4 19.6 C202.91 30.2, 201.52 40.65, 202.4 58.8 M202.4 58.8 C201.2 70.61, 195.06 77.56, 182.8 78.4 M202.4 58.8 C201.85 70.21, 196.39 78.06, 182.8 78.4 M182.8 78.4 C125.9 77.05, 73.76 80.03, 19.6 78.4 M182.8 78.4 C133.72 78.94, 83.37 79.15, 19.6 78.4 M19.6 78.4 C5.39 78.74, 1.11 73.65, 0 58.8 M19.6 78.4 C4.69 80.55, 1.74 70.32, 0 58.8 M0 58.8 C1.38 50.62, -0.05 39.81, 0 19.6 M0 58.8 C0.83 51.03, 0.25 41.63, 0 19.6 M0 19.6 C-1.34 6.72, 5.19 1.56, 19.6 0 M0 19.6 C1.23 8.19, 8.14 -0.49, 19.6 0" stroke="#6741d9" stroke-width="2" fill="none"></path></g><g transform="translate(575.4955705915177 49.60005493164067) rotate(0 49.21875 16.80000000000001)"><text x="49.21875" y="27.0375" font-family="Cascadia, Segoe UI Emoji" font-size="28px" fill="#6741d9" text-anchor="middle" style="white-space: pre;" direction="ltr" dominant-baseline="alphabetic">Needle</text></g><g stroke-linecap="round" transform="translate(471.1142839704239 382.85723658970414) rotate(0 150.4000244140625 245.20002746582043)"><path d="M32 0 C97.59 -1.61, 162.45 -2.19, 268.8 0 M32 0 C103.44 0.13, 175.55 -0.36, 268.8 0 M268.8 0 C290.17 -1.1, 301.01 10.89, 300.8 32 M268.8 0 C292.36 1.5, 301.42 11.65, 300.8 32 M300.8 32 C299.65 149.58, 298.27 267.62, 300.8 458.4 M300.8 32 C301.96 163.35, 301.41 294.06, 300.8 458.4 M300.8 458.4 C302.45 480.44, 290.58 488.95, 268.8 490.4 M300.8 458.4 C300.21 481.08, 290.98 490.09, 268.8 490.4 M268.8 490.4 C176.29 489.38, 87.26 488.5, 32 490.4 M268.8 490.4 C200.16 490.74, 133.04 489.66, 32 490.4 M32 490.4 C8.73 489.45, 1.24 479.41, 0 458.4 M32 490.4 C11.41 492.52, -0.75 481.69, 0 458.4 M0 458.4 C-1.82 304.28, -2.95 150.25, 0 32 M0 458.4 C1.01 334.44, 0.99 209.26, 0 32 M0 32 C-1.74 11.66, 12.59 0.67, 32 0 M0 32 C-0.09 9.01, 11.64 -1.84, 32 0" stroke="#1971c2" stroke-width="2" fill="none"></path></g><g stroke-linecap="round" transform="translate(517.9142870221817 627.7334238688152) rotate(0 101.19999694824219 39.20001220703125)"><path d="M5.22 4.54 C5.22 4.54, 5.22 4.54, 5.22 4.54 M5.22 4.54 C5.22 4.54, 5.22 4.54, 5.22 4.54 M0.76 21.86 C5.34 17.23, 9.65 11.45, 19.78 -0.03 M0.76 21.86 C5.78 16.62, 9.92 11.13, 19.78 -0.03 M0.89 33.9 C10.96 21.21, 19.25 10.13, 30.41 -0.06 M0.89 33.9 C7.75 25.79, 14.5 19.02, 30.41 -0.06 M1.02 45.94 C12.27 34.69, 20.21 21.11, 41.04 -0.1 M1.02 45.94 C13.06 33.16, 24.04 18.91, 41.04 -0.1 M1.16 57.98 C14.69 40.98, 27.78 27.83, 51.67 -0.13 M1.16 57.98 C20.07 37.17, 36.53 18.19, 51.67 -0.13 M2.6 68.51 C21.55 47.81, 42.43 25, 62.3 -0.17 M2.6 68.51 C20.59 49.58, 36.94 28.25, 62.3 -0.17 M7.33 75.27 C25.7 53.33, 42.19 36.06, 72.93 -0.2 M7.33 75.27 C33.54 45.49, 60.01 15.33, 72.93 -0.2 M15.33 78.26 C37.65 53.42, 61.77 28.57, 83.56 -0.23 M15.33 78.26 C41.43 48.9, 67.94 19.12, 83.56 -0.23 M25.31 78.98 C45.74 52.76, 66.74 31.07, 94.19 -0.27 M25.31 78.98 C51.9 47.24, 79.21 17.05, 94.19 -0.27 M35.94 78.94 C49.21 62.87, 63.87 47.35, 104.17 0.45 M35.94 78.94 C52.15 60.3, 69.32 40.12, 104.17 0.45 M46.57 78.91 C66.54 57.86, 83.22 34.48, 114.8 0.42 M46.57 78.91 C62.8 60.81, 78.06 42.04, 114.8 0.42 M57.2 78.87 C72.02 59.84, 86.18 44.37, 125.43 0.38 M57.2 78.87 C82.14 51.18, 107.64 21.88, 125.43 0.38 M67.83 78.84 C84.94 57.97, 104.39 38.87, 136.06 0.35 M67.83 78.84 C93.52 48.64, 118.37 18.98, 136.06 0.35 M78.46 78.8 C97.8 53.88, 120.52 30.1, 146.69 0.31 M78.46 78.8 C103.51 50.64, 129.42 20.88, 146.69 0.31 M89.09 78.77 C106.5 59.89, 124.57 38.68, 157.32 0.28 M89.09 78.77 C114.23 48.14, 140.99 19.19, 157.32 0.28 M99.72 78.73 C122.33 51.3, 148.5 22.52, 167.95 0.24 M99.72 78.73 C120.04 56.65, 141.2 31.74, 167.95 0.24 M110.35 78.7 C128.11 58.98, 142.67 39.57, 178.58 0.21 M110.35 78.7 C134.41 49.93, 160.99 20.36, 178.58 0.21 M120.98 78.67 C137.45 56.24, 156.1 36.61, 188.55 0.93 M120.98 78.67 C142.63 54.02, 164.35 28.99, 188.55 0.93 M131.61 78.63 C154.61 53.31, 176.16 26.47, 195.9 4.67 M131.61 78.63 C152.9 54.31, 172.46 31.71, 195.9 4.67 M142.24 78.6 C163.76 55.4, 180.43 32.37, 200.63 11.43 M142.24 78.6 C153.74 64.19, 166.34 49.34, 200.63 11.43 M152.87 78.56 C163.25 65.08, 174.12 53.16, 202.73 21.2 M152.87 78.56 C172.17 55.7, 192.18 34.04, 202.73 21.2 M163.5 78.53 C176.53 64, 188.37 52.29, 202.86 33.24 M163.5 78.53 C175.11 64.9, 189.24 49.33, 202.86 33.24 M174.13 78.49 C180.8 67.88, 189.02 60.15, 203 45.29 M174.13 78.49 C181.68 70.71, 187.51 62.36, 203 45.29 M184.76 78.46 C188.02 74.75, 192.38 67.62, 203.13 57.33 M184.76 78.46 C191.78 70.61, 197.8 63.73, 203.13 57.33" stroke="#a5d8ff" stroke-width="1" fill="none"></path><path d="M19.6 0 C77.59 0.47, 133.29 3.26, 182.8 0 M19.6 0 C71.24 -0.7, 123.38 -0.23, 182.8 0 M182.8 0 C196.22 0.14, 202.24 7.39, 202.4 19.6 M182.8 0 C195.47 0.2, 202.55 5.4, 202.4 19.6 M202.4 19.6 C203.45 35.58, 200.58 48.52, 202.4 58.8 M202.4 19.6 C201.49 31.97, 202.62 45.92, 202.4 58.8 M202.4 58.8 C201.35 70.88, 194.56 79.22, 182.8 78.4 M202.4 58.8 C202.58 74.02, 195.6 77.73, 182.8 78.4 M182.8 78.4 C136.69 78.22, 90.68 77.76, 19.6 78.4 M182.8 78.4 C133.52 77.46, 83.49 77.28, 19.6 78.4 M19.6 78.4 C5.04 79.83, 0.39 70.19, 0 58.8 M19.6 78.4 C7.7 79.51, 1.67 71.15, 0 58.8 M0 58.8 C0.66 47.57, -1.01 36.69, 0 19.6 M0 58.8 C-0.66 43.38, 1.06 28.07, 0 19.6 M0 19.6 C-0.86 6.42, 8.22 0.39, 19.6 0 M0 19.6 C-0.25 8.63, 8.49 1.63, 19.6 0" stroke="#1971c2" stroke-width="2" fill="none"></path></g><g transform="translate(586.3017839704239 650.1334360758465) rotate(0 32.8125 16.799999999999955)"><text x="32.8125" y="27.0375" font-family="Cascadia, Segoe UI Emoji" font-size="28px" fill="#1971c2" text-anchor="middle" style="white-space: pre;" direction="ltr" dominant-baseline="alphabetic">MLIR</text></g><g stroke-linecap="round" transform="translate(517.9142870221817 767.4667409261069) rotate(0 101.19999694824219 39.20001220703125)"><path d="M5.22 4.54 C5.22 4.54, 5.22 4.54, 5.22 4.54 M5.22 4.54 C5.22 4.54, 5.22 4.54, 5.22 4.54 M4.04 18.09 C10.09 12.37, 13.45 5.64, 19.78 -0.03 M4.04 18.09 C8.88 12.39, 12.55 6.35, 19.78 -0.03 M4.17 30.13 C13.26 20.55, 20.63 8.11, 30.41 -0.06 M4.17 30.13 C13.24 18.33, 24.1 8.22, 30.41 -0.06 M3.65 42.92 C14.29 32.55, 22.42 21.07, 41.04 -0.1 M3.65 42.92 C17.24 27.8, 31.79 11.59, 41.04 -0.1 M3.78 54.96 C21.09 33.17, 38.93 14.47, 51.67 -0.13 M3.78 54.96 C21.12 35.1, 39.04 15.76, 51.67 -0.13 M3.91 67 C25.77 45.63, 44.31 19.63, 62.3 -0.17 M3.91 67 C16.62 53.46, 27.95 40.61, 62.3 -0.17 M7.33 75.27 C27.85 50.03, 52.15 26.84, 72.93 -0.2 M7.33 75.27 C27.47 53.11, 46.89 29.56, 72.93 -0.2 M14.02 79.76 C35.18 59.46, 51.03 35.01, 83.56 -0.23 M14.02 79.76 C35.93 53.26, 58.1 29.56, 83.56 -0.23 M23.34 81.24 C43.75 59.75, 62.43 34.26, 94.19 -0.27 M23.34 81.24 C42.64 57.74, 63.68 34.77, 94.19 -0.27 M33.97 81.21 C57.36 55.39, 80.12 27.45, 104.17 0.45 M33.97 81.21 C58.78 52.64, 82.83 23.62, 104.17 0.45 M44.6 81.17 C56.73 64.43, 71.95 48.72, 114.8 0.42 M44.6 81.17 C64.12 56.64, 84.17 33.42, 114.8 0.42 M55.23 81.14 C82.96 48.83, 109.59 18.3, 125.43 0.38 M55.23 81.14 C81.32 49.95, 108.72 19.63, 125.43 0.38 M65.86 81.1 C81.83 62.2, 100.16 42.15, 136.06 0.35 M65.86 81.1 C81.99 61.69, 99.95 42.09, 136.06 0.35 M75.83 81.82 C100.02 57.94, 120.3 30.09, 146.69 0.31 M75.83 81.82 C89.75 64.98, 105.01 48.35, 146.69 0.31 M86.46 81.79 C106.11 58.42, 124.46 35.21, 157.32 0.28 M86.46 81.79 C113.52 51.63, 138.55 22.83, 157.32 0.28 M97.09 81.75 C110.63 65.01, 125.92 49.24, 167.95 0.24 M97.09 81.75 C111.65 62.8, 128.99 44.67, 167.95 0.24 M107.72 81.72 C133.67 52.26, 162.17 21.4, 178.58 0.21 M107.72 81.72 C125.59 60.82, 144.07 41.08, 178.58 0.21 M118.35 81.68 C142.16 54.65, 164.13 27.14, 186.58 3.19 M118.35 81.68 C146.33 51.08, 171.17 21.69, 186.58 3.19 M128.98 81.65 C148.97 57.65, 170.14 37.11, 195.9 4.67 M128.98 81.65 C153.81 53.52, 179.67 24.67, 195.9 4.67 M139.61 81.61 C163.48 55.82, 185.17 27.35, 201.94 9.92 M139.61 81.61 C154.55 63.52, 170.02 45.81, 201.94 9.92 M150.24 81.58 C161.32 65.82, 176.46 53.23, 205.35 18.18 M150.24 81.58 C168.13 60.86, 188.06 37.89, 205.35 18.18 M160.87 81.55 C171.6 69.13, 183.36 54.29, 205.49 30.23 M160.87 81.55 C174.05 66.97, 188.42 50.15, 205.49 30.23 M171.51 81.51 C180.83 70.49, 186.59 63.81, 205.62 42.27 M171.51 81.51 C182.32 69.5, 191.07 59.86, 205.62 42.27 M184.1 79.21 C188.16 73.24, 191.79 68.53, 205.75 54.31 M184.1 79.21 C189.37 73.22, 195.09 66.34, 205.75 54.31" stroke="#a5d8ff" stroke-width="1" fill="none"></path><path d="M19.6 0 C68.66 -0.37, 117.01 -0.15, 182.8 0 M19.6 0 C70.31 -1.19, 122.18 0.07, 182.8 0 M182.8 0 C196.89 1.07, 200.97 5.99, 202.4 19.6 M182.8 0 C195.63 -1.46, 202.05 6.88, 202.4 19.6 M202.4 19.6 C201.64 34.79, 203.27 47.26, 202.4 58.8 M202.4 19.6 C202.81 28.56, 203.03 40.09, 202.4 58.8 M202.4 58.8 C201.87 71.4, 197.76 78.83, 182.8 78.4 M202.4 58.8 C203.11 69.59, 195.82 79.31, 182.8 78.4 M182.8 78.4 C120.32 76.54, 59.09 79.5, 19.6 78.4 M182.8 78.4 C143.94 78.21, 104.55 76.94, 19.6 78.4 M19.6 78.4 C7.23 79.31, 1.97 72.23, 0 58.8 M19.6 78.4 C8.28 78.89, 1.79 73.15, 0 58.8 M0 58.8 C-1.11 43.63, 0.51 30.9, 0 19.6 M0 58.8 C-1.2 43.66, 0.04 28.97, 0 19.6 M0 19.6 C1.84 6.57, 6.34 1.38, 19.6 0 M0 19.6 C-0.5 4.43, 6.28 0.45, 19.6 0" stroke="#1971c2" stroke-width="2" fill="none"></path></g><g transform="translate(586.3017839704239 789.8667531331382) rotate(0 32.8125 16.799999999999955)"><text x="32.8125" y="27.0375" font-family="Cascadia, Segoe UI Emoji" font-size="28px" fill="#1971c2" text-anchor="middle" style="white-space: pre;" direction="ltr" dominant-baseline="alphabetic">LLVM</text></g><g stroke-linecap="round" transform="translate(691.5143236432755 935.9999847412112) rotate(0 101.19999694824219 39.20001220703125)"><path d="M5.22 4.54 C5.22 4.54, 5.22 4.54, 5.22 4.54 M5.22 4.54 C5.22 4.54, 5.22 4.54, 5.22 4.54 M0.76 21.86 C5.49 18.58, 8.87 11.66, 19.78 -0.03 M0.76 21.86 C8.11 13.99, 16.75 4.69, 19.78 -0.03 M0.89 33.9 C7.23 25.58, 12.74 20.13, 30.41 -0.06 M0.89 33.9 C6.76 25.88, 13.92 19.23, 30.41 -0.06 M1.02 45.94 C10.82 34.52, 24.16 21.96, 41.04 -0.1 M1.02 45.94 C10.47 36.34, 19.17 25.82, 41.04 -0.1 M1.16 57.98 C21.88 34.29, 39.92 13.01, 51.67 -0.13 M1.16 57.98 C19.09 36.98, 37.37 15.81, 51.67 -0.13 M2.6 68.51 C16.71 52.1, 34 34.59, 62.3 -0.17 M2.6 68.51 C27.39 42.07, 49.91 13.77, 62.3 -0.17 M7.33 75.27 C29.25 51.16, 48.48 27.08, 72.93 -0.2 M7.33 75.27 C29.46 51.97, 49.11 26.59, 72.93 -0.2 M15.33 78.26 C36.07 51.22, 60.91 26.82, 83.56 -0.23 M15.33 78.26 C31.88 57.94, 50.49 38.07, 83.56 -0.23 M25.31 78.98 C48.4 50.37, 72.77 23.33, 94.19 -0.27 M25.31 78.98 C48.73 52.97, 70.93 25.69, 94.19 -0.27 M35.94 78.94 C54.01 58.71, 72.29 36.95, 104.17 0.45 M35.94 78.94 C57.96 52.85, 81.93 27.68, 104.17 0.45 M46.57 78.91 C69.14 52.94, 87.71 30.29, 114.8 0.42 M46.57 78.91 C64.94 55.74, 83.84 34.73, 114.8 0.42 M57.2 78.87 C83.1 49.9, 110.72 18.54, 125.43 0.38 M57.2 78.87 C77.9 56.94, 97.76 34.71, 125.43 0.38 M67.83 78.84 C93.15 49.32, 115.85 19.72, 136.06 0.35 M67.83 78.84 C94.67 46.86, 122.14 15.99, 136.06 0.35 M78.46 78.8 C92.11 61.97, 106.79 43.47, 146.69 0.31 M78.46 78.8 C104.76 49.42, 130.45 20.5, 146.69 0.31 M89.09 78.77 C116.91 50.04, 144.28 16.23, 157.32 0.28 M89.09 78.77 C115.47 48.28, 140.54 19.68, 157.32 0.28 M99.72 78.73 C114.69 59.47, 129.97 43.52, 167.95 0.24 M99.72 78.73 C122.56 52.27, 145.93 23.78, 167.95 0.24 M110.35 78.7 C138.23 50.1, 165.68 15.9, 178.58 0.21 M110.35 78.7 C129.34 58.58, 146.85 38.22, 178.58 0.21 M120.98 78.67 C140.2 55.81, 160.93 33.8, 188.55 0.93 M120.98 78.67 C145.03 52.19, 167.52 24.26, 188.55 0.93 M131.61 78.63 C150.16 53.45, 171.9 32.27, 195.9 4.67 M131.61 78.63 C153 53.7, 173.96 28.75, 195.9 4.67 M142.24 78.6 C156.5 63.39, 171.12 49.13, 200.63 11.43 M142.24 78.6 C156.8 61.36, 172.06 45.78, 200.63 11.43 M152.87 78.56 C174.88 55.75, 191.31 32.76, 202.73 21.2 M152.87 78.56 C166.66 64.86, 179.17 49.26, 202.73 21.2 M163.5 78.53 C173.08 69.1, 182.28 57.69, 202.86 33.24 M163.5 78.53 C174.78 64.58, 186.52 52.83, 202.86 33.24 M174.13 78.49 C179.39 71.93, 185.96 63.7, 203 45.29 M174.13 78.49 C183.53 69.3, 190.5 59.57, 203 45.29 M184.76 78.46 C191.31 71.04, 196.76 64.9, 203.13 57.33 M184.76 78.46 C189.66 72.9, 194.05 67.69, 203.13 57.33" stroke="#99e9f2" stroke-width="1" fill="none"></path><path d="M19.6 0 C58.67 0.88, 96.52 1.19, 182.8 0 M19.6 0 C65.78 1.51, 111.15 1.7, 182.8 0 M182.8 0 C195.79 1.09, 200.71 6.77, 202.4 19.6 M182.8 0 C193.65 1.63, 203.61 4.71, 202.4 19.6 M202.4 19.6 C202.02 33.22, 203.87 43.5, 202.4 58.8 M202.4 19.6 C203.2 28.92, 201.62 37.72, 202.4 58.8 M202.4 58.8 C200.42 73.06, 194.22 80.13, 182.8 78.4 M202.4 58.8 C204.62 71.88, 195.29 78.43, 182.8 78.4 M182.8 78.4 C133.58 76.68, 82.67 77.96, 19.6 78.4 M182.8 78.4 C132.34 77.83, 80.28 77.76, 19.6 78.4 M19.6 78.4 C8.14 78.77, 0.37 70.33, 0 58.8 M19.6 78.4 C4.57 79.56, 1.68 70.41, 0 58.8 M0 58.8 C-1.29 46.48, -1.09 37.09, 0 19.6 M0 58.8 C0.82 49.43, -0.09 39.68, 0 19.6 M0 19.6 C-1.11 7.88, 5.7 -1.1, 19.6 0 M0 19.6 C1.6 5.13, 5.87 1.19, 19.6 0" stroke="#0c8599" stroke-width="2" fill="none"></path></g><g transform="translate(751.6986955915177 958.3999969482425) rotate(0 41.015625 16.799999999999955)"><text x="41.015625" y="27.0375" font-family="Cascadia, Segoe UI Emoji" font-size="28px" fill="#0c8599" text-anchor="middle" style="white-space: pre;" direction="ltr" dominant-baseline="alphabetic">NVPTX</text></g><g stroke-linecap="round"><g transform="translate(619.9143327985489 568.0000762939453) rotate(0 1.5965556269134709 27.428536551339562)"><path d="M1.18 1.05 C1.71 9.92, 3.46 45.02, 3.93 54 M0.35 0.56 C0.71 9.49, 2.82 45.81, 3.36 55.09" stroke="#1971c2" stroke-width="2" fill="none"></path></g><g transform="translate(619.9143327985489 568.0000762939453) rotate(0 1.5965556269134709 27.428536551339562)"><path d="M-6.53 32.14 C-1.02 41.63, -0.59 50.09, 3.36 55.09 M-6.53 32.14 C-4.59 40.23, -0.9 47.23, 3.36 55.09" stroke="#1971c2" stroke-width="2" fill="none"></path></g><g transform="translate(619.9143327985489 568.0000762939453) rotate(0 1.5965556269134709 27.428536551339562)"><path d="M10.54 31.15 C9.83 41.17, 4.04 49.99, 3.36 55.09 M10.54 31.15 C7.25 39.39, 5.7 46.69, 3.36 55.09" stroke="#1971c2" stroke-width="2" fill="none"></path></g></g><mask></mask><g stroke-linecap="round"><g transform="translate(623.9143327985489 708.8000640869141) rotate(0 0 26.000015258789062)"><path d="M-0.88 -1.17 C-0.87 7.52, -0.22 42.05, 0.1 51.01 M0.86 0.83 C0.72 9.74, -0.78 43.74, -0.8 52.03" stroke="#1971c2" stroke-width="2" fill="none"></path></g><g transform="translate(623.9143327985489 708.8000640869141) rotate(0 0 26.000015258789062)"><path d="M-8.74 28.32 C-8.51 35.71, -5.81 44.38, -0.8 52.03 M-8.74 28.32 C-5.63 37.07, -4.01 44.64, -0.8 52.03" stroke="#1971c2" stroke-width="2" fill="none"></path></g><g transform="translate(623.9143327985489 708.8000640869141) rotate(0 0 26.000015258789062)"><path d="M8.36 28.77 C3.42 35.9, 0.95 44.43, -0.8 52.03 M8.36 28.77 C5.48 37.28, 1.12 44.69, -0.8 52.03" stroke="#1971c2" stroke-width="2" fill="none"></path></g></g><mask></mask><g stroke-linecap="round"><g transform="translate(667.7224138547115 848.8000946044922) rotate(0 43.63800737052884 41.599945068359375)"><path d="M0.5 -0.71 C14.94 13.34, 72.57 69.69, 87.17 83.76 M-0.7 1.54 C13.53 15.27, 71.42 68.58, 86.17 81.93" stroke="#1971c2" stroke-width="2" fill="none"></path></g><g transform="translate(667.7224138547115 848.8000946044922) rotate(0 43.63800737052884 41.599945068359375)"><path d="M63.07 72.38 C69.75 75.38, 79.76 80.26, 86.17 81.93 M63.07 72.38 C70.12 75.93, 78.39 78.84, 86.17 81.93" stroke="#1971c2" stroke-width="2" fill="none"></path></g><g transform="translate(667.7224138547115 848.8000946044922) rotate(0 43.63800737052884 41.599945068359375)"><path d="M74.61 59.77 C77.29 67.13, 83.35 76.32, 86.17 81.93 M74.61 59.77 C77.79 67.65, 82.1 74.89, 86.17 81.93" stroke="#1971c2" stroke-width="2" fill="none"></path></g></g><mask></mask><g stroke-linecap="round"><g transform="translate(919.3939485037174 568.8000793457031) rotate(0 -53.7385810991334 180.4000015258789)"><path d="M1.14 0.65 C-16.7 60.73, -88.88 301.45, -106.84 361.39 M0.27 -0.05 C-17.68 59.59, -89.58 299.35, -107.46 359.58" stroke="#2f9e44" stroke-width="2" fill="none"></path></g><g transform="translate(919.3939485037174 568.8000793457031) rotate(0 -53.7385810991334 180.4000015258789)"><path d="M-108.93 334.63 C-107.18 343.57, -106.81 351.76, -107.46 359.58 M-108.93 334.63 C-107.81 340.18, -107.54 346.99, -107.46 359.58" stroke="#2f9e44" stroke-width="2" fill="none"></path></g><g transform="translate(919.3939485037174 568.8000793457031) rotate(0 -53.7385810991334 180.4000015258789)"><path d="M-92.54 339.52 C-96.02 347.07, -100.83 353.71, -107.46 359.58 M-92.54 339.52 C-95.68 343.78, -99.64 349.31, -107.46 359.58" stroke="#2f9e44" stroke-width="2" fill="none"></path></g></g><mask></mask><g stroke-linecap="round" transform="translate(230.31426565987704 934.4000701904295) rotate(0 101.19999694824219 39.20001220703125)"><path d="M5.22 4.54 C5.22 4.54, 5.22 4.54, 5.22 4.54 M5.22 4.54 C5.22 4.54, 5.22 4.54, 5.22 4.54 M4.04 18.09 C9.22 10.36, 14.43 4.94, 19.78 -0.03 M4.04 18.09 C10.08 10.98, 15.07 4.97, 19.78 -0.03 M4.17 30.13 C10.22 22.39, 19.74 13.43, 30.41 -0.06 M4.17 30.13 C11.55 21.71, 17.61 13.4, 30.41 -0.06 M3.65 42.92 C13.36 31.68, 21.59 23.55, 41.04 -0.1 M3.65 42.92 C16.56 26.41, 30.48 12.22, 41.04 -0.1 M3.78 54.96 C15.21 42.24, 27.67 24.5, 51.67 -0.13 M3.78 54.96 C18.08 40.19, 31.41 24.92, 51.67 -0.13 M3.91 67 C24.49 41.07, 45.66 18.02, 62.3 -0.17 M3.91 67 C15.7 53.47, 27 40.78, 62.3 -0.17 M7.33 75.27 C29.06 48.98, 52.49 20.87, 72.93 -0.2 M7.33 75.27 C25.99 55.05, 45.83 33.38, 72.93 -0.2 M14.02 79.76 C32.53 55.94, 52.55 33.75, 83.56 -0.23 M14.02 79.76 C35.54 54.53, 55.85 30.58, 83.56 -0.23 M23.34 81.24 C47.13 52.4, 72.21 24.2, 94.19 -0.27 M23.34 81.24 C39.38 62.16, 56.88 43.51, 94.19 -0.27 M33.97 81.21 C48.66 63.75, 65.18 44.69, 104.17 0.45 M33.97 81.21 C56.44 54.43, 78.5 30.06, 104.17 0.45 M44.6 81.17 C58.01 66.1, 73 50.91, 114.8 0.42 M44.6 81.17 C61.47 62.44, 78.37 41.85, 114.8 0.42 M55.23 81.14 C78.98 57.38, 100.83 30.95, 125.43 0.38 M55.23 81.14 C71.54 61.7, 85.72 43.88, 125.43 0.38 M65.86 81.1 C80.86 60.94, 99.59 43.26, 136.06 0.35 M65.86 81.1 C89.4 53.72, 114.53 26.74, 136.06 0.35 M75.83 81.82 C93.39 62.58, 110.63 44.77, 146.69 0.31 M75.83 81.82 C93.71 61.58, 109.8 41.6, 146.69 0.31 M86.46 81.79 C107.19 57.35, 127.8 34.83, 157.32 0.28 M86.46 81.79 C107.51 58.16, 128.64 33.61, 157.32 0.28 M97.09 81.75 C116.51 58.05, 138.54 34.41, 167.95 0.24 M97.09 81.75 C117.4 59.89, 136.05 36.87, 167.95 0.24 M107.72 81.72 C134.25 49.06, 163.06 19.69, 178.58 0.21 M107.72 81.72 C132.26 54.13, 156.46 24.81, 178.58 0.21 M118.35 81.68 C142.51 55.07, 167.07 28.55, 186.58 3.19 M118.35 81.68 C138.66 59.11, 158.11 35.05, 186.58 3.19 M128.98 81.65 C149.43 58.17, 167.14 36.21, 195.9 4.67 M128.98 81.65 C152.45 56.85, 172.79 31.47, 195.9 4.67 M139.61 81.61 C161.28 55.76, 183.59 32.9, 201.94 9.92 M139.61 81.61 C162.06 56.88, 184.33 31.21, 201.94 9.92 M150.24 81.58 C166.56 62.29, 180.74 44.54, 205.35 18.18 M150.24 81.58 C168.63 60.55, 188.72 38.34, 205.35 18.18 M160.87 81.55 C178.93 64.44, 192.49 45.47, 205.49 30.23 M160.87 81.55 C176.69 62.53, 194.5 43.43, 205.49 30.23 M171.51 81.51 C179.83 72, 190.94 59.74, 205.62 42.27 M171.51 81.51 C179.18 70.83, 189.17 61.25, 205.62 42.27 M184.1 79.21 C189.49 71.33, 197.02 63.46, 205.75 54.31 M184.1 79.21 C192.3 71.09, 199.69 62.46, 205.75 54.31" stroke="#ffc9c9" stroke-width="1" fill="none"></path><path d="M19.6 0 C58.68 1.28, 93.2 2.86, 182.8 0 M19.6 0 C66.56 1.73, 113.6 1.04, 182.8 0 M182.8 0 C197.32 -1.33, 203.5 8.3, 202.4 19.6 M182.8 0 C197.89 -1.27, 203.48 8.29, 202.4 19.6 M202.4 19.6 C201.78 29.6, 203.69 40.78, 202.4 58.8 M202.4 19.6 C202.23 31.6, 203.33 43.03, 202.4 58.8 M202.4 58.8 C202.78 72.77, 196.55 77.37, 182.8 78.4 M202.4 58.8 C201.6 70.02, 197.79 79.66, 182.8 78.4 M182.8 78.4 C144.73 80.37, 109.15 79.67, 19.6 78.4 M182.8 78.4 C141.81 80.18, 102.77 79.54, 19.6 78.4 M19.6 78.4 C8.11 79.96, 0.24 70.85, 0 58.8 M19.6 78.4 C7.37 76.47, 1.15 72.34, 0 58.8 M0 58.8 C1.64 45.98, 1.11 36.44, 0 19.6 M0 58.8 C-0.24 50.88, -0.02 41.5, 0 19.6 M0 19.6 C-0.76 7.62, 5.99 1.91, 19.6 0 M0 19.6 C-0.66 7.99, 6.76 1.51, 19.6 0" stroke="#e03131" stroke-width="2" fill="none"></path></g><g transform="translate(306.9048876081192 956.8000823974608) rotate(0 24.609375 16.799999999999955)"><text x="24.609375" y="27.0375" font-family="Cascadia, Segoe UI Emoji" font-size="28px" fill="#e03131" text-anchor="middle" style="white-space: pre;" direction="ltr" dominant-baseline="alphabetic">X86</text></g><g stroke-linecap="round"><g transform="translate(328.7730169594477 601.4571555001398) rotate(0 1.5131708791268466 149.17146955217618)"><path d="M-0.91 0.09 C-0.6 49.7, 1.21 248.36, 1.91 297.89 M0.82 -0.91 C1.47 48.85, 3.73 249.37, 4.04 299.19" stroke="#e03131" stroke-width="2" fill="none"></path></g><g transform="translate(328.7730169594477 601.4571555001398) rotate(0 1.5131708791268466 149.17146955217618)"><path d="M-4.72 275.77 C-1.86 281.14, -0.09 290.61, 4.04 299.19 M-4.72 275.77 C-2.38 280.96, -1.22 286.37, 4.04 299.19" stroke="#e03131" stroke-width="2" fill="none"></path></g><g transform="translate(328.7730169594477 601.4571555001398) rotate(0 1.5131708791268466 149.17146955217618)"><path d="M12.38 275.62 C10.02 280.9, 6.57 290.42, 4.04 299.19 M12.38 275.62 C11.18 280.85, 8.8 286.3, 4.04 299.19" stroke="#e03131" stroke-width="2" fill="none"></path></g></g><mask></mask><g stroke-linecap="round" transform="translate(692.3143114362442 1030.4000091552732) rotate(0 101.19999694824219 39.20001220703125)"><path d="M5.22 4.54 C5.22 4.54, 5.22 4.54, 5.22 4.54 M5.22 4.54 C5.22 4.54, 5.22 4.54, 5.22 4.54 M4.04 18.09 C8.69 12.79, 14.05 5.82, 19.78 -0.03 M4.04 18.09 C8.86 13.25, 11.11 8.72, 19.78 -0.03 M4.17 30.13 C11.99 19.79, 21.76 12.57, 30.41 -0.06 M4.17 30.13 C14.73 19.04, 25.33 6.21, 30.41 -0.06 M3.65 42.92 C13.08 33.97, 21.21 25.34, 41.04 -0.1 M3.65 42.92 C16.73 28.4, 30.17 11.62, 41.04 -0.1 M3.78 54.96 C18.17 37.19, 32.93 22.27, 51.67 -0.13 M3.78 54.96 C21.2 34.48, 39.48 13.58, 51.67 -0.13 M3.91 67 C17.95 48.26, 37.98 30.53, 62.3 -0.17 M3.91 67 C21.75 46.62, 39.81 24.72, 62.3 -0.17 M7.33 75.27 C32.1 47.16, 55.88 18.67, 72.93 -0.2 M7.33 75.27 C26.96 52.49, 47.47 28.72, 72.93 -0.2 M14.02 79.76 C36.12 55.93, 55.22 29.19, 83.56 -0.23 M14.02 79.76 C40.43 50, 66.74 18.78, 83.56 -0.23 M23.34 81.24 C39.62 64.26, 53.95 46.33, 94.19 -0.27 M23.34 81.24 C42.27 60.19, 61.07 38.81, 94.19 -0.27 M33.97 81.21 C62.4 50.25, 86.41 19.68, 104.17 0.45 M33.97 81.21 C50.83 62.33, 68.84 42.54, 104.17 0.45 M44.6 81.17 C68.75 56.36, 89.09 30.39, 114.8 0.42 M44.6 81.17 C70.59 52.48, 95.81 24.83, 114.8 0.42 M55.23 81.14 C81.53 52.63, 106.9 21.94, 125.43 0.38 M55.23 81.14 C69.44 65.56, 83.98 48.99, 125.43 0.38 M65.86 81.1 C92.3 51.79, 117.3 18.92, 136.06 0.35 M65.86 81.1 C80.61 62.84, 96.82 45.27, 136.06 0.35 M75.83 81.82 C95.37 60.18, 111 41.14, 146.69 0.31 M75.83 81.82 C91.54 63.03, 106.88 46.33, 146.69 0.31 M86.46 81.79 C106.06 59.91, 123.08 38.22, 157.32 0.28 M86.46 81.79 C108.58 57.21, 130.2 33.31, 157.32 0.28 M97.09 81.75 C111.79 64.03, 129.36 47.98, 167.95 0.24 M97.09 81.75 C110.64 65.2, 125.41 47.31, 167.95 0.24 M107.72 81.72 C130.22 57.58, 151.69 33.05, 178.58 0.21 M107.72 81.72 C135.95 49.35, 162.88 17.47, 178.58 0.21 M118.35 81.68 C140.02 57.39, 163.95 30.42, 186.58 3.19 M118.35 81.68 C144 51.31, 171.43 20.4, 186.58 3.19 M128.98 81.65 C150.12 57.44, 174.2 28.15, 195.9 4.67 M128.98 81.65 C149 59.84, 167 38.59, 195.9 4.67 M139.61 81.61 C155.94 62.39, 173.01 43.88, 201.94 9.92 M139.61 81.61 C160.51 59.68, 178.74 35.35, 201.94 9.92 M150.24 81.58 C168.17 62.24, 187.46 41.05, 205.35 18.18 M150.24 81.58 C168.06 60.76, 184.77 41.49, 205.35 18.18 M160.87 81.55 C170.5 67.82, 180.31 58.85, 205.49 30.23 M160.87 81.55 C172.04 68.84, 185.21 54.16, 205.49 30.23 M171.51 81.51 C180.18 67.77, 194.46 55.89, 205.62 42.27 M171.51 81.51 C179.01 72.57, 187.4 63.38, 205.62 42.27 M184.1 79.21 C190.01 74.18, 192.15 67.9, 205.75 54.31 M184.1 79.21 C189.94 72.3, 195.06 66.85, 205.75 54.31" stroke="#99e9f2" stroke-width="1" fill="none"></path><path d="M19.6 0 C66.36 2.09, 112.26 0.4, 182.8 0 M19.6 0 C59.76 1.44, 101.55 0.74, 182.8 0 M182.8 0 C197.02 -1.52, 203.31 6.14, 202.4 19.6 M182.8 0 C194.33 -1.8, 200.77 7.82, 202.4 19.6 M202.4 19.6 C203.99 31.06, 200.97 41.39, 202.4 58.8 M202.4 19.6 C202.76 30.25, 202.36 42.43, 202.4 58.8 M202.4 58.8 C200.81 73.15, 195.91 76.58, 182.8 78.4 M202.4 58.8 C201.18 71.77, 196.01 79.73, 182.8 78.4 M182.8 78.4 C142.56 78.9, 104.64 77.45, 19.6 78.4 M182.8 78.4 C142.97 78.25, 103.54 79.97, 19.6 78.4 M19.6 78.4 C4.84 79.59, -1.25 71.46, 0 58.8 M19.6 78.4 C4.52 78.28, 1.49 71.56, 0 58.8 M0 58.8 C-1.18 48.39, -0.89 35.96, 0 19.6 M0 58.8 C-0.06 48.73, 0.36 38.44, 0 19.6 M0 19.6 C1.88 7.88, 7.52 0.23, 19.6 0 M0 19.6 C1.95 7.45, 7.09 0.11, 19.6 0" stroke="#0c8599" stroke-width="2" fill="none"></path></g><g transform="translate(760.7018083844864 1052.8000213623045) rotate(0 32.8125 16.799999999999955)"><text x="32.8125" y="27.0375" font-family="Cascadia, Segoe UI Emoji" font-size="28px" fill="#0c8599" text-anchor="middle" style="white-space: pre;" direction="ltr" dominant-baseline="alphabetic">SASS</text></g><g stroke-linecap="round" transform="translate(219.11431448800204 900.8000946044922) rotate(0 405.59999084472656 108.39999389648438)"><path d="M32 0 C317.33 -0.18, 601.2 0.45, 779.2 0 M32 0 C255.02 2.27, 477.62 2.32, 779.2 0 M779.2 0 C800.39 -0.71, 810.68 12.06, 811.2 32 M779.2 0 C800.54 0.24, 811.7 10.67, 811.2 32 M811.2 32 C812.15 93.3, 811.49 153.57, 811.2 184.8 M811.2 32 C810.31 82.37, 811.82 131.07, 811.2 184.8 M811.2 184.8 C810.61 204.4, 801.56 218.79, 779.2 216.8 M811.2 184.8 C810.48 207.73, 799.87 215.5, 779.2 216.8 M779.2 216.8 C495.23 216.65, 211.25 216.05, 32 216.8 M779.2 216.8 C594.37 215.38, 409.67 215.49, 32 216.8 M32 216.8 C11.08 216.21, -1.43 205.39, 0 184.8 M32 216.8 C11.86 214.54, -0.93 204.82, 0 184.8 M0 184.8 C-0.44 145.84, -2.13 107.23, 0 32 M0 184.8 C0.31 147.29, -0.89 110.12, 0 32 M0 32 C0.7 11.94, 11.79 1.93, 32 0 M0 32 C-0.02 9.81, 12.38 1.88, 32 0" stroke="#1e1e1e" stroke-width="2" fill="none"></path></g><g stroke-linecap="round" transform="translate(209.5143083844864 369.2571585518974) rotate(0 408.0000305175781 115.59999847412121)"><path d="M32 0 C218.75 0.14, 404.57 1.59, 784 0 M32 0 C244.25 -0.81, 456.44 -0.89, 784 0 M784 0 C805.45 -1.71, 817.75 9.13, 816 32 M784 0 C807.16 -0.02, 815.57 11.91, 816 32 M816 32 C814.6 69.85, 815.68 109.09, 816 199.2 M816 32 C816.41 66.16, 815.33 101.23, 816 199.2 M816 199.2 C814.43 221.69, 805.12 232.94, 784 231.2 M816 199.2 C818.04 221.72, 805.21 229.85, 784 231.2 M784 231.2 C565.36 232.93, 348.3 232.71, 32 231.2 M784 231.2 C539.43 231.46, 294.81 231.5, 32 231.2 M32 231.2 C11.54 230.85, 0.79 221.05, 0 199.2 M32 231.2 C9.15 233, 0.01 221.36, 0 199.2 M0 199.2 C-2.15 135.5, -3.41 70.88, 0 32 M0 199.2 C0.88 136.11, 0.75 72.44, 0 32 M0 32 C1.62 9.86, 9.83 -1.65, 32 0 M0 32 C-0.28 10.04, 9.81 1.3, 32 0" stroke="#1e1e1e" stroke-width="2" fill="none"></path></g><g stroke-linecap="round"><g transform="translate(651.1142839704239 488.8000946044922) rotate(0 -34.79998779296875 -22.800018310546875)"><path d="M0.76 -0.44 C-5.26 -8.09, -23.68 -44.78, -35.52 -45.32 C-47.35 -45.87, -64.39 -10.92, -70.24 -3.71 M-0.3 -1.72 C-6.01 -9.8, -21.55 -47.14, -33.39 -47.3 C-45.23 -47.45, -65.09 -9.87, -71.34 -2.66" stroke="#1971c2" stroke-width="2" fill="none"></path></g><g transform="translate(651.1142839704239 488.8000946044922) rotate(0 -34.79998779296875 -22.800018310546875)"><path d="M-65.23 -26.91 C-67.98 -20.29, -68.9 -11.05, -71.34 -2.66 M-65.23 -26.91 C-66.88 -20.47, -67.69 -15.36, -71.34 -2.66" stroke="#1971c2" stroke-width="2" fill="none"></path></g><g transform="translate(651.1142839704239 488.8000946044922) rotate(0 -34.79998779296875 -22.800018310546875)"><path d="M-51.07 -17.31 C-58.8 -13.94, -64.65 -8.04, -71.34 -2.66 M-51.07 -17.31 C-56.29 -13.21, -60.74 -10.57, -71.34 -2.66" stroke="#1971c2" stroke-width="2" fill="none"></path></g></g><mask></mask><g transform="translate(650.5142473493302 438.00010681152344) rotate(0 45.70315182209015 10.400006103515636)"><text x="0" y="16.737509822845468" font-family="Cascadia, Segoe UI Emoji" font-size="17.333343505859382px" fill="#1971c2" text-anchor="start" style="white-space: pre;" direction="ltr" dominant-baseline="alphabetic">Auto Tune</text></g><g stroke-linecap="round"><g transform="translate(59.11431448800204 319.20008850097656) rotate(0 582.8000030517578 -2)"><path d="M1.05 -0.55 C195.53 -0.93, 972.08 -2.8, 1166.17 -3.34 M0.15 1.78 C194.58 1.14, 971.41 -4.43, 1165.52 -5.11" stroke="#1971c2" stroke-width="2" fill="none"></path></g></g><mask></mask><g transform="translate(10 411.11436462402344) rotate(0 57.421875 16.80000000000001)"><text x="0" y="27.0375" font-family="Cascadia, Segoe UI Emoji" font-size="28px" fill="#1e1e1e" text-anchor="start" style="white-space: pre;" direction="ltr" dominant-baseline="alphabetic">backend</text></g><g transform="translate(10 208.11436462402344) rotate(0 65.625 16.80000000000001)"><text x="0" y="27.0375" font-family="Cascadia, Segoe UI Emoji" font-size="28px" fill="#1e1e1e" text-anchor="start" style="white-space: pre;" direction="ltr" dominant-baseline="alphabetic">frontend</text></g><g stroke-linecap="round" transform="translate(281.1142381940567 158.40003967285156) rotate(0 101.19999694824219 39.20001220703125)"><path d="M5.22 4.54 C5.22 4.54, 5.22 4.54, 5.22 4.54 M5.22 4.54 C5.22 4.54, 5.22 4.54, 5.22 4.54 M0.76 21.86 C6.02 15.5, 7.34 12.36, 19.78 -0.03 M0.76 21.86 C3.93 16.87, 7.99 12.1, 19.78 -0.03 M0.89 33.9 C12.51 19.94, 23.72 10.44, 30.41 -0.06 M0.89 33.9 C9.49 23.92, 16.43 16.13, 30.41 -0.06 M1.02 45.94 C10.42 30.95, 25.21 18.03, 41.04 -0.1 M1.02 45.94 C12.25 35.07, 21.86 23.37, 41.04 -0.1 M1.16 57.98 C15.53 41.86, 31.36 22.84, 51.67 -0.13 M1.16 57.98 C13 44.57, 26.26 29.21, 51.67 -0.13 M2.6 68.51 C16.16 50.8, 31.89 37.17, 62.3 -0.17 M2.6 68.51 C22.99 46.32, 41.73 22.89, 62.3 -0.17 M7.33 75.27 C27.88 49.11, 52.34 21.91, 72.93 -0.2 M7.33 75.27 C21.16 60.06, 34.82 42.84, 72.93 -0.2 M15.33 78.26 C28.35 62.66, 43.54 46.09, 83.56 -0.23 M15.33 78.26 C33.47 55.49, 52.79 33.88, 83.56 -0.23 M25.31 78.98 C43.62 60.61, 59.63 41.82, 94.19 -0.27 M25.31 78.98 C49.77 48.2, 76.48 18.47, 94.19 -0.27 M35.94 78.94 C60.79 51.85, 82.42 27.23, 104.17 0.45 M35.94 78.94 C54.36 56.28, 75.14 32.98, 104.17 0.45 M46.57 78.91 C72 46.18, 100.41 17.89, 114.8 0.42 M46.57 78.91 C69.84 53.96, 93.17 28.1, 114.8 0.42 M57.2 78.87 C72.68 61.32, 84.78 46.47, 125.43 0.38 M57.2 78.87 C70.91 62.81, 84.43 47.3, 125.43 0.38 M67.83 78.84 C87.32 58.52, 109.41 35.04, 136.06 0.35 M67.83 78.84 C93.89 48.18, 120.12 18.67, 136.06 0.35 M78.46 78.8 C93.67 57.57, 109.87 40.04, 146.69 0.31 M78.46 78.8 C106.87 47.52, 134.12 15.69, 146.69 0.31 M89.09 78.77 C105.09 57.58, 124.16 35.55, 157.32 0.28 M89.09 78.77 C104.17 60.12, 120.47 43.78, 157.32 0.28 M99.72 78.73 C118.38 56.9, 138.09 36.17, 167.95 0.24 M99.72 78.73 C121.98 52.65, 145.42 26.73, 167.95 0.24 M110.35 78.7 C134.45 49.6, 160.13 18.53, 178.58 0.21 M110.35 78.7 C128.7 57.98, 147.7 36.11, 178.58 0.21 M120.98 78.67 C143.34 52.94, 165.28 28.21, 188.55 0.93 M120.98 78.67 C146.82 48.61, 173.63 20.27, 188.55 0.93 M131.61 78.63 C149.77 57.67, 170.12 35.85, 195.9 4.67 M131.61 78.63 C151.94 53.05, 174.11 29.41, 195.9 4.67 M142.24 78.6 C160.87 58.39, 176.4 37.79, 200.63 11.43 M142.24 78.6 C153.3 65.04, 165.72 50.85, 200.63 11.43 M152.87 78.56 C165.71 64.08, 178.23 50.2, 202.73 21.2 M152.87 78.56 C168.25 60.16, 182.97 42.96, 202.73 21.2 M163.5 78.53 C174.04 63.25, 186.64 49.37, 202.86 33.24 M163.5 78.53 C178.64 59.6, 194.61 43.32, 202.86 33.24 M174.13 78.49 C178.56 69.84, 187.09 63.61, 203 45.29 M174.13 78.49 C182.57 68.49, 190.83 59.15, 203 45.29 M184.76 78.46 C190.96 71.73, 194.19 68.96, 203.13 57.33 M184.76 78.46 C191.25 70.95, 199.14 62.44, 203.13 57.33" stroke="#d0bfff" stroke-width="1" fill="none"></path><path d="M19.6 0 C52.72 0.5, 86.89 0.49, 182.8 0 M19.6 0 C68.92 -0.43, 116.94 -1.2, 182.8 0 M182.8 0 C194.37 0.69, 201.24 7.71, 202.4 19.6 M182.8 0 C193.97 1.12, 202 6.57, 202.4 19.6 M202.4 19.6 C200.3 33.4, 200.76 44.97, 202.4 58.8 M202.4 19.6 C202.38 34.38, 201.96 47.49, 202.4 58.8 M202.4 58.8 C203.75 71.8, 197.07 79.54, 182.8 78.4 M202.4 58.8 C204.63 70.15, 196.58 80.27, 182.8 78.4 M182.8 78.4 C138.45 75.81, 96.49 76.63, 19.6 78.4 M182.8 78.4 C134.41 77.2, 86.98 76.53, 19.6 78.4 M19.6 78.4 C5.84 79.29, 1.19 70.48, 0 58.8 M19.6 78.4 C5.27 78.57, 0.43 71.05, 0 58.8 M0 58.8 C-1.2 43.8, -0.87 28.61, 0 19.6 M0 58.8 C0.61 45.77, 0.48 30.27, 0 19.6 M0 19.6 C0.19 8.43, 4.81 1.61, 19.6 0 M0 19.6 C-0.94 8.58, 6.73 1.09, 19.6 0" stroke="#6741d9" stroke-width="2" fill="none"></path></g><g transform="translate(316.6892351422989 180.80005187988286) rotate(0 65.625 16.80000000000001)"><text x="65.625" y="27.0375" font-family="Cascadia, Segoe UI Emoji" font-size="28px" fill="#6741d9" text-anchor="middle" style="white-space: pre;" direction="ltr" dominant-baseline="alphabetic">Autograd</text></g><g stroke-linecap="round" transform="translate(523.5143236432755 158.40003967285156) rotate(0 101.19999694824219 39.20001220703125)"><path d="M5.22 4.54 C5.22 4.54, 5.22 4.54, 5.22 4.54 M5.22 4.54 C5.22 4.54, 5.22 4.54, 5.22 4.54 M4.04 18.09 C9.2 11.66, 17.16 5.39, 19.78 -0.03 M4.04 18.09 C7.65 13.12, 10.79 10.89, 19.78 -0.03 M4.17 30.13 C13.1 20.32, 23.21 9.42, 30.41 -0.06 M4.17 30.13 C9.9 24.38, 14.98 17.19, 30.41 -0.06 M3.65 42.92 C14.21 33.96, 22.51 20.26, 41.04 -0.1 M3.65 42.92 C13.3 32.49, 22.29 22.06, 41.04 -0.1 M3.78 54.96 C18.51 39.13, 32.63 22.87, 51.67 -0.13 M3.78 54.96 C21.58 36.06, 37.4 15.26, 51.67 -0.13 M3.91 67 C21.07 47.66, 35.89 29.62, 62.3 -0.17 M3.91 67 C18.19 49.85, 32.89 33.68, 62.3 -0.17 M7.33 75.27 C27.19 51.42, 44.93 29.98, 72.93 -0.2 M7.33 75.27 C26 52.78, 42.92 31.92, 72.93 -0.2 M14.02 79.76 C38.7 50.93, 60.92 25.37, 83.56 -0.23 M14.02 79.76 C38.15 52.2, 61.85 24.87, 83.56 -0.23 M23.34 81.24 C41.13 61.2, 57.54 40.15, 94.19 -0.27 M23.34 81.24 C40.93 61.73, 58.73 41.95, 94.19 -0.27 M33.97 81.21 C57.44 51.9, 83.27 25.07, 104.17 0.45 M33.97 81.21 C61.9 50.39, 87.13 20.99, 104.17 0.45 M44.6 81.17 C63.69 61.53, 82.24 40.14, 114.8 0.42 M44.6 81.17 C64.54 56.76, 87.3 31.81, 114.8 0.42 M55.23 81.14 C82.76 49.71, 110.98 19.61, 125.43 0.38 M55.23 81.14 C73.6 61.65, 90.82 42.17, 125.43 0.38 M65.86 81.1 C94.8 48.98, 120.56 15.92, 136.06 0.35 M65.86 81.1 C82.95 62.85, 98.82 42.74, 136.06 0.35 M75.83 81.82 C92.17 63.57, 109.83 46.05, 146.69 0.31 M75.83 81.82 C90.64 64.52, 105.49 47.17, 146.69 0.31 M86.46 81.79 C110.75 57.3, 133.19 28.08, 157.32 0.28 M86.46 81.79 C115.55 50.21, 143.82 18.08, 157.32 0.28 M97.09 81.75 C112.17 63.49, 129.21 43.72, 167.95 0.24 M97.09 81.75 C123.15 51.29, 150 20.57, 167.95 0.24 M107.72 81.72 C124.11 62.36, 140.31 42.69, 178.58 0.21 M107.72 81.72 C125.87 61.19, 143.65 40.15, 178.58 0.21 M118.35 81.68 C143.35 51.29, 172.2 19.62, 186.58 3.19 M118.35 81.68 C143.58 50.95, 169.66 22.46, 186.58 3.19 M128.98 81.65 C149.88 57.46, 172.72 30.84, 195.9 4.67 M128.98 81.65 C147.55 60.37, 166.61 38.21, 195.9 4.67 M139.61 81.61 C159.53 58.62, 177.11 36.98, 201.94 9.92 M139.61 81.61 C162.24 56.65, 184.99 30.73, 201.94 9.92 M150.24 81.58 C172.6 58.48, 191.17 35.03, 205.35 18.18 M150.24 81.58 C163.36 66.29, 177.47 49.39, 205.35 18.18 M160.87 81.55 C172.98 71.09, 181.38 57.39, 205.49 30.23 M160.87 81.55 C176.37 65.34, 191.51 45.99, 205.49 30.23 M171.51 81.51 C183.45 70.46, 194.19 56.74, 205.62 42.27 M171.51 81.51 C183.05 69.36, 193.96 56.96, 205.62 42.27 M184.1 79.21 C190.63 73.77, 194.42 66.72, 205.75 54.31 M184.1 79.21 C189.32 71.97, 195.92 66.02, 205.75 54.31" stroke="#d0bfff" stroke-width="1" fill="none"></path><path d="M19.6 0 C76.9 -0.63, 133.69 1.08, 182.8 0 M19.6 0 C76.08 0.42, 133.66 0.24, 182.8 0 M182.8 0 C195.53 -1.65, 201.88 4.61, 202.4 19.6 M182.8 0 C196.92 0.3, 200.87 4.53, 202.4 19.6 M202.4 19.6 C203.09 31.09, 202.57 44.38, 202.4 58.8 M202.4 19.6 C202.72 35.62, 202.69 50.97, 202.4 58.8 M202.4 58.8 C202.65 72.06, 196.39 77.97, 182.8 78.4 M202.4 58.8 C202.58 70.39, 195.04 80.28, 182.8 78.4 M182.8 78.4 C134.47 80.44, 84.55 78.88, 19.6 78.4 M182.8 78.4 C130.97 77.75, 78.41 77.73, 19.6 78.4 M19.6 78.4 C5.5 77.1, -0.44 73.53, 0 58.8 M19.6 78.4 C5.92 77.85, 0.85 73.57, 0 58.8 M0 58.8 C-1.67 51.22, -0.63 41.32, 0 19.6 M0 58.8 C0.8 46.89, -0.55 32.29, 0 19.6 M0 19.6 C1.41 5.42, 7.37 0.08, 19.6 0 M0 19.6 C0.68 5.71, 5.45 -0.65, 19.6 0" stroke="#6741d9" stroke-width="2" fill="none"></path></g><g transform="translate(583.6986955915177 180.80005187988286) rotate(0 41.015625 16.80000000000001)"><text x="41.015625" y="27.0375" font-family="Cascadia, Segoe UI Emoji" font-size="28px" fill="#6741d9" text-anchor="middle" style="white-space: pre;" direction="ltr" dominant-baseline="alphabetic">Optim</text></g><g stroke-linecap="round" transform="translate(770.7142748151505 158.40003967285156) rotate(0 101.19999694824219 39.20001220703125)"><path d="M5.22 4.54 C5.22 4.54, 5.22 4.54, 5.22 4.54 M5.22 4.54 C5.22 4.54, 5.22 4.54, 5.22 4.54 M4.04 18.09 C7.94 14.94, 12.65 8.28, 19.78 -0.03 M4.04 18.09 C8.85 12.07, 13.66 7.41, 19.78 -0.03 M4.17 30.13 C15.67 19.87, 22.75 9.23, 30.41 -0.06 M4.17 30.13 C10.23 23.92, 16.1 16.47, 30.41 -0.06 M3.65 42.92 C11.84 33.63, 18.34 26.32, 41.04 -0.1 M3.65 42.92 C15.69 29.53, 27.28 14.81, 41.04 -0.1 M3.78 54.96 C21.08 34.57, 38.21 12.71, 51.67 -0.13 M3.78 54.96 C19.96 36.55, 35.61 19.31, 51.67 -0.13 M3.91 67 C16.46 53.58, 27.72 40.15, 62.3 -0.17 M3.91 67 C20.78 46.4, 39.89 27.55, 62.3 -0.17 M7.33 75.27 C28.66 51.97, 47.6 29.72, 72.93 -0.2 M7.33 75.27 C27.75 52.33, 47.33 29.46, 72.93 -0.2 M14.02 79.76 C38.82 49.45, 65.01 20.19, 83.56 -0.23 M14.02 79.76 C29.23 63.48, 43.43 46.53, 83.56 -0.23 M23.34 81.24 C40.45 60.92, 57.41 40.71, 94.19 -0.27 M23.34 81.24 C48.75 52.8, 72.62 23.06, 94.19 -0.27 M33.97 81.21 C59.29 53.14, 81.2 27.73, 104.17 0.45 M33.97 81.21 C56.58 57.11, 75.69 33.1, 104.17 0.45 M44.6 81.17 C60.33 65.06, 73.56 46.63, 114.8 0.42 M44.6 81.17 C67.58 55.54, 90.2 28.79, 114.8 0.42 M55.23 81.14 C78.73 54.13, 100.77 26.04, 125.43 0.38 M55.23 81.14 C80.94 52.15, 107.45 20.82, 125.43 0.38 M65.86 81.1 C88.23 54.67, 108.78 32.08, 136.06 0.35 M65.86 81.1 C90.73 52.09, 116.43 24.15, 136.06 0.35 M75.83 81.82 C100.11 54.39, 120.98 31.53, 146.69 0.31 M75.83 81.82 C98.67 55.93, 119.62 29.48, 146.69 0.31 M86.46 81.79 C113.75 51.99, 139.26 22.69, 157.32 0.28 M86.46 81.79 C106.12 59.5, 124.07 39.48, 157.32 0.28 M97.09 81.75 C114.12 63.19, 131.02 43.88, 167.95 0.24 M97.09 81.75 C111.88 64.94, 125.67 49.49, 167.95 0.24 M107.72 81.72 C127.37 63.15, 146.05 39.57, 178.58 0.21 M107.72 81.72 C131.73 52.36, 157.92 23.2, 178.58 0.21 M118.35 81.68 C141.79 55.72, 168.48 27.4, 186.58 3.19 M118.35 81.68 C143.57 52.72, 168.71 24.72, 186.58 3.19 M128.98 81.65 C144.17 64.5, 160.47 44.62, 195.9 4.67 M128.98 81.65 C153.15 53.45, 176.4 28.12, 195.9 4.67 M139.61 81.61 C159.08 59.11, 177.43 37.04, 201.94 9.92 M139.61 81.61 C158.14 60.25, 177.16 39.19, 201.94 9.92 M150.24 81.58 C170.02 57.66, 192.7 34.97, 205.35 18.18 M150.24 81.58 C167.7 62.3, 184.41 41.56, 205.35 18.18 M160.87 81.55 C169.94 70.13, 181.01 57.21, 205.49 30.23 M160.87 81.55 C178.48 61.01, 195.38 41.54, 205.49 30.23 M171.51 81.51 C180.63 69.98, 194.14 57.89, 205.62 42.27 M171.51 81.51 C182.24 68.27, 193.08 55.85, 205.62 42.27 M184.1 79.21 C191.82 73.51, 198.65 65.81, 205.75 54.31 M184.1 79.21 C188.58 73.41, 193.5 68.57, 205.75 54.31" stroke="#d0bfff" stroke-width="1" fill="none"></path><path d="M19.6 0 C62.15 0.24, 107.92 0.16, 182.8 0 M19.6 0 C76.11 0.44, 134.15 1.2, 182.8 0 M182.8 0 C197.7 -1.72, 201.11 5.63, 202.4 19.6 M182.8 0 C196.93 1.22, 203.19 7.72, 202.4 19.6 M202.4 19.6 C203.15 30.78, 203.08 40.76, 202.4 58.8 M202.4 19.6 C201.91 33, 202.95 46.38, 202.4 58.8 M202.4 58.8 C202.32 72.11, 194.38 77.31, 182.8 78.4 M202.4 58.8 C202.08 69.69, 196.02 78.05, 182.8 78.4 M182.8 78.4 C124.95 78.85, 68.45 77.71, 19.6 78.4 M182.8 78.4 C132.36 79.51, 83.78 79.33, 19.6 78.4 M19.6 78.4 C5.82 80.05, -0.8 73.86, 0 58.8 M19.6 78.4 C6.58 80.3, 1.56 74.12, 0 58.8 M0 58.8 C-0.54 43.18, 0.8 31.61, 0 19.6 M0 58.8 C-1.31 45.53, -0.87 32.57, 0 19.6 M0 19.6 C-0.16 5.54, 5.65 -1.43, 19.6 0 M0 19.6 C1 7.08, 6.7 2.25, 19.6 0" stroke="#6741d9" stroke-width="2" fill="none"></path></g><g transform="translate(822.6955217633927 180.80005187988286) rotate(0 49.21875 16.80000000000001)"><text x="49.21875" y="27.0375" font-family="Cascadia, Segoe UI Emoji" font-size="28px" fill="#6741d9" text-anchor="middle" style="white-space: pre;" direction="ltr" dominant-baseline="alphabetic">Module</text></g><g stroke-linecap="round" transform="translate(223.45711844308062 140.97150094168535) rotate(0 401.7143467494418 58.85713849748885)"><path d="M29.43 0 C311.66 -2.19, 594.72 -1.49, 774 0 M29.43 0 C322.57 1.46, 615.44 1.55, 774 0 M774 0 C794.09 -0.94, 805.16 8.55, 803.43 29.43 M774 0 C791.66 -0.58, 804.43 11.4, 803.43 29.43 M803.43 29.43 C801.75 48.88, 803.72 70.69, 803.43 88.29 M803.43 29.43 C804.55 45.67, 804.21 60.15, 803.43 88.29 M803.43 88.29 C803.08 108.77, 793.56 119.05, 774 117.71 M803.43 88.29 C805.42 107.03, 792.23 117.69, 774 117.71 M774 117.71 C568.19 114.73, 360.64 114.29, 29.43 117.71 M774 117.71 C516.84 120.02, 259.09 119.93, 29.43 117.71 M29.43 117.71 C10.23 118.14, -0.76 107.48, 0 88.29 M29.43 117.71 C7.92 119.31, -0.95 109.09, 0 88.29 M0 88.29 C-0.73 67.8, 1.94 46.38, 0 29.43 M0 88.29 C-0.67 67.04, -1.31 48.43, 0 29.43 M0 29.43 C-0.57 7.98, 9.7 1.45, 29.43 0 M0 29.43 C0.27 10.13, 9.89 -2.25, 29.43 0" stroke="#1e1e1e" stroke-width="2" fill="none"></path></g><g transform="translate(1116.5999930245537 507.54285103934126) rotate(0 139.453125 16.80000000000001)"><text x="0" y="27.0375" font-family="Cascadia, Segoe UI Emoji" font-size="28px" fill="#1e1e1e" text-anchor="start" style="white-space: pre;" direction="ltr" dominant-baseline="alphabetic">Programming model</text></g><g transform="translate(1116.5999930245537 967.6000636509484) rotate(0 114.84375 16.799999999999955)"><text x="0" y="27.0375" font-family="Cascadia, Segoe UI Emoji" font-size="28px" fill="#1e1e1e" text-anchor="start" style="white-space: pre;" direction="ltr" dominant-baseline="alphabetic">Assembly level</text></g><g transform="translate(1116.5999930245537 190.45720650809153) rotate(0 73.828125 16.80000000000001)"><text x="0" y="27.0375" font-family="Cascadia, Segoe UI Emoji" font-size="28px" fill="#1e1e1e" text-anchor="start" style="white-space: pre;" direction="ltr" dominant-baseline="alphabetic">Component</text></g><g stroke-linecap="round"><g transform="translate(1400.599888392857 33.54291207449796) rotate(0 4.571446010044497 549.142826625279)"><path d="M-0.27 1.13 C1.08 184.27, 7.11 915.62, 8.55 1098.44 M1.79 0.68 C3.5 184.06, 9.44 916.96, 10.96 1100.06" stroke="#1e1e1e" stroke-width="2" fill="none"></path></g><g transform="translate(1400.599888392857 33.54291207449796) rotate(0 4.571446010044497 549.142826625279)"><path d="M2.22 1076.64 C6.99 1083.6, 8.32 1091.27, 10.96 1100.06 M2.22 1076.64 C4.01 1083.88, 7.68 1089.44, 10.96 1100.06" stroke="#1e1e1e" stroke-width="2" fill="none"></path></g><g transform="translate(1400.599888392857 33.54291207449796) rotate(0 4.571446010044497 549.142826625279)"><path d="M19.32 1076.5 C18.31 1083.47, 13.85 1091.18, 10.96 1100.06 M19.32 1076.5 C16.3 1083.8, 15.17 1089.4, 10.96 1100.06" stroke="#1e1e1e" stroke-width="2" fill="none"></path></g></g><mask></mask></svg>